<?xml version="1.0" encoding="UTF-8"?>
<svg viewBox="0 -80 1200 780" class="w-full h-auto" style="min-height: 600px;" xmlns="http://www.w3.org/2000/svg" xmlns:xlink="http://www.w3.org/1999/xlink"><defs><marker id="arrowhead-data" viewBox="0 0 12 12" markerUnits="userSpaceOnUse" markerWidth="12" markerHeight="12" refX="10" refY="6" orient="auto"><polygon points="0 0, 12 6, 0 12" fill="#6B7280"/></marker><marker id="arrowhead-feedback" viewBox="0 0 12 12" markerUnits="userSpaceOnUse" markerWidth="12" markerHeight="12" refX="10" refY="6" orient="auto"><polygon points="0 0, 12 6, 0 12" fill="#DC2626"/></marker><marker id="arrowhead-control" viewBox="0 0 12 12" markerUnits="userSpaceOnUse" markerWidth="12" markerHeight="12" refX="10" refY="6" orient="auto"><polygon points="0 0, 12 6, 0 12" fill="#8B5CF6"/></marker><marker id="arrowhead-gradient" viewBox="0 0 12 12" markerUnits="userSpaceOnUse" markerWidth="12" markerHeight="12" refX="10" refY="6" orient="auto"><polygon points="0 0, 12 6, 0 12" fill="#3B82F6"/></marker><filter id="glow"><feGaussianBlur stdDeviation="3" result="coloredBlur"/><feMerge><feMergeNode in="coloredBlur"/><feMergeNode in="SourceGraphic"/></feMerge></filter></defs><g><rect x="0" y="-80" width="1200" height="80" fill="#ffffff"/><text x="600" y="-50" text-anchor="middle" font-size="20" font-weight="700" font-family="sans-serif" fill="#111827">AutoTrafficSim: An Agentic Framework for Autonomous Traffic Scenario Synthesis</text><text x="600" y="-28" text-anchor="middle" font-size="12" font-family="monospace" fill="#4B5563">GraphRAG-Enhanced LLM Agent System for Microscopic Traffic Simulation</text><text x="600" y="-10" text-anchor="middle" font-size="10" font-family="sans-serif" fill="#9CA3AF">Dissertation Proposal Draft</text><rect x="8" y="24" width="1180" height="628" rx="18" fill="#F8FAFC" stroke="#CBD5E1" stroke-width="1.5"/><rect x="16" y="56" width="210" height="338" rx="14" fill="#EFF6FF" fill-opacity="0.55" stroke="#BFDBFE" stroke-width="1"/><rect x="236" y="106" width="490" height="200" rx="14" fill="#FAF5FF" fill-opacity="0.45" stroke="#DDD6FE" stroke-width="1"/><rect x="736" y="56" width="210" height="338" rx="14" fill="#FFF7ED" fill-opacity="0.55" stroke="#FED7AA" stroke-width="1"/><rect x="956" y="106" width="230" height="414" rx="14" fill="#F0FDF4" fill-opacity="0.6" stroke="#BBF7D0" stroke-width="1"/></g><g><g><path d="M 210 115 C 246 115, 214 197, 250 197" fill="none" stroke="#FFFFFF" stroke-width="5" stroke-linecap="round" stroke-linejoin="round" opacity="0.9" pathLength="1" stroke-dashoffset="0" stroke-dasharray="1 1"/><path d="M 210 115 C 246 115, 214 197, 250 197" fill="none" stroke="#6B7280" stroke-width="2" stroke-dasharray="1 1" stroke-linecap="round" stroke-linejoin="round" marker-end="url(#arrowhead-data)" opacity="1" pathLength="1" stroke-dashoffset="0"/></g><g><path d="M 210 225 C 246 225, 214 225, 250 225" fill="none" stroke="#FFFFFF" stroke-width="5" stroke-linecap="round" stroke-linejoin="round" opacity="0.9" pathLength="1" stroke-dashoffset="0" stroke-dasharray="1 1"/><path d="M 210 225 C 246 225, 214 225, 250 225" fill="none" stroke="#6B7280" stroke-width="2" stroke-dasharray="1 1" stroke-linecap="round" stroke-linejoin="round" marker-end="url(#arrowhead-data)" opacity="1" pathLength="1" stroke-dashoffset="0"/></g><g><path d="M 210 335 C 246 335, 214 253, 250 253" fill="none" stroke="#FFFFFF" stroke-width="5" stroke-linecap="round" stroke-linejoin="round" opacity="0.9" pathLength="1" stroke-dashoffset="0" stroke-dasharray="1 1"/><path d="M 210 335 C 246 335, 214 253, 250 253" fill="none" stroke="#6B7280" stroke-width="2" stroke-dasharray="1 1" stroke-linecap="round" stroke-linejoin="round" marker-end="url(#arrowhead-data)" opacity="1" pathLength="1" stroke-dashoffset="0"/></g><g><path d="M 450 225 C 486 225, 454 205, 490 205" fill="none" stroke="#FFFFFF" stroke-width="5" stroke-linecap="round" stroke-linejoin="round" opacity="0.9" pathLength="1" stroke-dashoffset="0" stroke-dasharray="1 1"/><path d="M 450 225 C 486 225, 454 205, 490 205" fill="none" stroke="#3B82F6" stroke-width="2" stroke-dasharray="1 1" stroke-linecap="round" stroke-linejoin="round" marker-end="url(#arrowhead-gradient)" opacity="1" pathLength="1" stroke-dashoffset="0"/></g><g><path d="M 710 173 C 746 173, 714 112.5, 750 112.5" fill="none" stroke="#FFFFFF" stroke-width="5" stroke-linecap="round" stroke-linejoin="round" opacity="0.9" pathLength="1" stroke-dashoffset="0" stroke-dasharray="1 1"/><path d="M 710 173 C 746 173, 714 112.5, 750 112.5" fill="none" stroke="#8B5CF6" stroke-width="2" stroke-dasharray="1 1" stroke-linecap="round" stroke-linejoin="round" marker-end="url(#arrowhead-control)" opacity="1" pathLength="1" stroke-dashoffset="0"/></g><g><path d="M 710 237 C 746 237, 714 217.5, 750 217.5" fill="none" stroke="#FFFFFF" stroke-width="5" stroke-linecap="round" stroke-linejoin="round" opacity="0.9" pathLength="1" stroke-dashoffset="0" stroke-dasharray="1 1"/><path d="M 710 237 C 746 237, 714 217.5, 750 217.5" fill="none" stroke="#8B5CF6" stroke-width="2" stroke-dasharray="1 1" stroke-linecap="round" stroke-linejoin="round" marker-end="url(#arrowhead-control)" opacity="1" pathLength="1" stroke-dashoffset="0"/></g><g><path d="M 840 155 L 840 175" fill="none" stroke="#FFFFFF" stroke-width="5" stroke-linecap="round" stroke-linejoin="round" opacity="0.9" pathLength="1" stroke-dashoffset="0" stroke-dasharray="1 1"/><path d="M 840 155 L 840 175" fill="none" stroke="#6B7280" stroke-width="2" stroke-dasharray="1 1" stroke-linecap="round" stroke-linejoin="round" marker-end="url(#arrowhead-data)" opacity="1" pathLength="1" stroke-dashoffset="0"/></g><g><path d="M 840 260 L 840 280" fill="none" stroke="#FFFFFF" stroke-width="5" stroke-linecap="round" stroke-linejoin="round" opacity="0.9" pathLength="1" stroke-dashoffset="0" stroke-dasharray="1 1"/><path d="M 840 260 L 840 280" fill="none" stroke="#6B7280" stroke-width="2" stroke-dasharray="1 1" stroke-linecap="round" stroke-linejoin="round" marker-end="url(#arrowhead-data)" opacity="1" pathLength="1" stroke-dashoffset="0"/></g><g><path d="M 930 312 C 966 312, 934 179.5, 970 179.5" fill="none" stroke="#FFFFFF" stroke-width="5" stroke-linecap="round" stroke-linejoin="round" opacity="0.9" pathLength="1" stroke-dashoffset="0" stroke-dasharray="1 1"/><path d="M 930 312 C 966 312, 934 179.5, 970 179.5" fill="none" stroke="#6B7280" stroke-width="2" stroke-dasharray="1 1" stroke-linecap="round" stroke-linejoin="round" marker-end="url(#arrowhead-data)" opacity="1" pathLength="1" stroke-dashoffset="0"/></g><g><path d="M 930 350 C 966 350, 934 292.5, 970 292.5" fill="none" stroke="#FFFFFF" stroke-width="5" stroke-linecap="round" stroke-linejoin="round" opacity="0.9" pathLength="1" stroke-dashoffset="0" stroke-dasharray="1 1"/><path d="M 930 350 C 966 350, 934 292.5, 970 292.5" fill="none" stroke="#6B7280" stroke-width="2" stroke-dasharray="1 1" stroke-linecap="round" stroke-linejoin="round" marker-end="url(#arrowhead-data)" opacity="1" pathLength="1" stroke-dashoffset="0"/></g><g><path d="M 970 316.5 L 940 316.5 L 940 560 L 600 560 L 600 290" fill="none" stroke="#FFFFFF" stroke-width="5.5" stroke-linecap="round" stroke-linejoin="round" opacity="0.9" pathLength="1" stroke-dashoffset="0" stroke-dasharray="1 1"/><path d="M 970 316.5 L 940 316.5 L 940 560 L 600 560 L 600 290" fill="none" stroke="#DC2626" stroke-width="2.5" stroke-dasharray="1 1" stroke-linecap="round" stroke-linejoin="round" marker-end="url(#arrowhead-feedback)" opacity="1" pathLength="1" stroke-dashoffset="0"/></g><g><path d="M 1170 159.5 L 1178 159.5 L 1178 620 L 540 620 L 540 290" fill="none" stroke="#FFFFFF" stroke-width="5.5" stroke-linecap="round" stroke-linejoin="round" opacity="0.9" pathLength="1" stroke-dashoffset="0" stroke-dasharray="1 1"/><path d="M 1170 159.5 L 1178 159.5 L 1178 620 L 540 620 L 540 290" fill="none" stroke="#DC2626" stroke-width="2.5" stroke-dasharray="1 1" stroke-linecap="round" stroke-linejoin="round" marker-end="url(#arrowhead-feedback)" opacity="1" pathLength="1" stroke-dashoffset="0"/></g><g><path d="M 670 120 C 710 72, 505 72, 545 120" fill="none" stroke="#FFFFFF" stroke-width="5" stroke-linecap="round" stroke-linejoin="round" opacity="0.9" pathLength="1" stroke-dashoffset="0" stroke-dasharray="1 1"/><path d="M 670 120 C 710 72, 505 72, 545 120" fill="none" stroke="#8B5CF6" stroke-width="2" stroke-dasharray="1 1" stroke-linecap="round" stroke-linejoin="round" marker-end="url(#arrowhead-control)" opacity="1" pathLength="1" stroke-dashoffset="0"/></g></g><g opacity="1" style="transform: none; transform-origin: 50% 50%; transform-box: fill-box;"><rect x="30" y="70" width="180" height="90" rx="6" fill="#EFF6FF" stroke="#d1d5db" stroke-width="1.5"/><g transform="translate(42 80)"><svg xmlns="http://www.w3.org/2000/svg" width="14" height="14" viewBox="0 0 24 24" fill="none" stroke="#374151" stroke-width="1.5" stroke-linecap="round" stroke-linejoin="round" class="lucide lucide-radio"><path d="M4.9 19.1C1 15.2 1 8.8 4.9 4.9"/><path d="M7.8 16.2c-2.3-2.3-2.3-6.1 0-8.5"/><circle cx="12" cy="12" r="2"/><path d="M16.2 7.8c2.3 2.3 2.3 6.1 0 8.5"/><path d="M19.1 4.9C23 8.8 23 15.1 19.1 19"/></svg></g><text x="64" y="90" font-size="11" font-weight="600" fill="#111827">Loop Sensor Data</text><text x="64" y="102" font-size="10" fill="#6B7280" font-family="monospace">Real-time Sensor Network</text><text x="42" y="126" font-size="10" font-weight="400" fill="#4B5563" font-family="monospace">• Sensor intervals</text><text x="42" y="137" font-size="10" font-weight="400" fill="#4B5563" font-family="monospace">• Flow / speed / occ</text><text x="42" y="148" font-size="10" font-weight="400" fill="#4B5563" font-family="monospace">• Mainline + on-ramp</text></g><g opacity="1" style="transform: none; transform-origin: 50% 50%; transform-box: fill-box;"><rect x="30" y="180" width="180" height="90" rx="6" fill="#EFF6FF" stroke="#d1d5db" stroke-width="1.5"/><g transform="translate(42 190)"><svg xmlns="http://www.w3.org/2000/svg" width="14" height="14" viewBox="0 0 24 24" fill="none" stroke="#374151" stroke-width="1.5" stroke-linecap="round" stroke-linejoin="round" class="lucide lucide-map"><path d="M14.106 5.553a2 2 0 0 0 1.788 0l3.659-1.83A1 1 0 0 1 21 4.619v12.764a1 1 0 0 1-.553.894l-4.553 2.277a2 2 0 0 1-1.788 0l-4.212-2.106a2 2 0 0 0-1.788 0l-3.659 1.83A1 1 0 0 1 3 19.381V6.618a1 1 0 0 1 .553-.894l4.553-2.277a2 2 0 0 1 1.788 0z"/><path d="M15 5.764v15"/><path d="M9 3.236v15"/></svg></g><text x="64" y="200" font-size="11" font-weight="600" fill="#111827">OpenStreetMap</text><text x="64" y="212" font-size="10" fill="#6B7280" font-family="monospace">Road Network Topology</text><text x="42" y="236" font-size="10" font-weight="400" fill="#4B5563" font-family="monospace">• Graph structure</text><text x="42" y="247" font-size="10" font-weight="400" fill="#4B5563" font-family="monospace">• Lane geometry</text><text x="42" y="258" font-size="10" font-weight="400" fill="#4B5563" font-family="monospace">• Constraints</text></g><g opacity="1" style="transform: none; transform-origin: 50% 50%; transform-box: fill-box;"><rect x="30" y="290" width="180" height="90" rx="6" fill="#EFF6FF" stroke="#d1d5db" stroke-width="1.5"/><g transform="translate(42 300)"><svg xmlns="http://www.w3.org/2000/svg" width="14" height="14" viewBox="0 0 24 24" fill="none" stroke="#374151" stroke-width="1.5" stroke-linecap="round" stroke-linejoin="round" class="lucide lucide-database"><ellipse cx="12" cy="5" rx="9" ry="3"/><path d="M3 5V19A9 3 0 0 0 21 19V5"/><path d="M3 12A9 3 0 0 0 21 12"/></svg></g><text x="64" y="310" font-size="11" font-weight="600" fill="#111827">Neo4j Knowledge Graph</text><text x="64" y="322" font-size="10" fill="#6B7280" font-family="monospace">Domain Ontology</text><text x="42" y="346" font-size="10" font-weight="400" fill="#4B5563" font-family="monospace">• Road segments &amp; lanes</text><text x="42" y="357" font-size="10" font-weight="400" fill="#4B5563" font-family="monospace">• Sensor &amp; ramp connectivity</text><text x="42" y="368" font-size="10" font-weight="400" fill="#4B5563" font-family="monospace">• Corridor topology</text></g><g opacity="1" style="transform: none; transform-origin: 50% 50%; transform-box: fill-box;"><rect x="246" y="156" width="208" height="138" rx="8" fill="#3B82F6" opacity="0.2" filter="url(#glow)"/><rect x="250" y="160" width="200" height="130" rx="6" fill="#DBEAFE" stroke="#d1d5db" stroke-width="1.5"/><g transform="translate(262 170)"><svg xmlns="http://www.w3.org/2000/svg" width="14" height="14" viewBox="0 0 24 24" fill="none" stroke="#374151" stroke-width="1.5" stroke-linecap="round" stroke-linejoin="round" class="lucide lucide-network"><rect x="16" y="16" width="6" height="6" rx="1"/><rect x="2" y="16" width="6" height="6" rx="1"/><rect x="9" y="2" width="6" height="6" rx="1"/><path d="M5 16v-3a1 1 0 0 1 1-1h12a1 1 0 0 1 1 1v3"/><path d="M12 12V8"/></svg></g><text x="284" y="180" font-size="11" font-weight="600" fill="#111827">GraphRAG Retrieval</text><text x="284" y="192" font-size="10" fill="#6B7280" font-family="monospace">Hybrid Retrieval System</text><text x="262" y="256" font-size="10" font-weight="400" fill="#4B5563" font-family="monospace">• Network topology &amp; geometry</text><text x="262" y="267" font-size="10" font-weight="400" fill="#4B5563" font-family="monospace">• Sensor &amp; ramp metadata</text><text x="262" y="278" font-size="10" font-weight="400" fill="#4B5563" font-family="monospace">• Ranked relevant subgraphs</text></g><g opacity="1" style="transform: none; transform-origin: 50% 50%; transform-box: fill-box;"><rect x="486" y="116" width="228" height="178" rx="8" fill="#8B5CF6" opacity="0.2" filter="url(#glow)"/><rect x="490" y="120" width="220" height="170" rx="6" fill="#FAF5FF" stroke="#d1d5db" stroke-width="1.5"/><g transform="translate(502 130)"><svg xmlns="http://www.w3.org/2000/svg" width="14" height="14" viewBox="0 0 24 24" fill="none" stroke="#374151" stroke-width="1.5" stroke-linecap="round" stroke-linejoin="round" class="lucide lucide-brain"><path d="M12 5a3 3 0 1 0-5.997.125 4 4 0 0 0-2.526 5.77 4 4 0 0 0 .556 6.588A4 4 0 1 0 12 18Z"/><path d="M12 5a3 3 0 1 1 5.997.125 4 4 0 0 1 2.526 5.77 4 4 0 0 1-.556 6.588A4 4 0 1 1 12 18Z"/><path d="M15 13a4.5 4.5 0 0 1-3-4 4.5 4.5 0 0 1-3 4"/><path d="M17.599 6.5a3 3 0 0 0 .399-1.375"/><path d="M6.003 5.125A3 3 0 0 0 6.401 6.5"/><path d="M3.477 10.896a4 4 0 0 1 .585-.396"/><path d="M19.938 10.5a4 4 0 0 1 .585.396"/><path d="M6 18a4 4 0 0 1-1.967-.516"/><path d="M19.967 17.484A4 4 0 0 1 18 18"/></svg></g><text x="524" y="140" font-size="11" font-weight="600" fill="#111827">LLM Agent (Agentic Researcher)</text><text x="524" y="152" font-size="10" fill="#6B7280" font-family="monospace">Autonomous Reasoning Agent</text><text x="502" y="256" font-size="10" font-weight="400" fill="#4B5563" font-family="monospace">• Scenario synthesis</text><text x="502" y="267" font-size="10" font-weight="400" fill="#4B5563" font-family="monospace">• Hypothesis generation</text><text x="502" y="278" font-size="10" font-weight="400" fill="#4B5563" font-family="monospace">• Autonomous experiment loop</text></g><g opacity="1" style="transform: none; transform-origin: 50% 50%; transform-box: fill-box;"><rect x="750" y="70" width="180" height="85" rx="6" fill="#FFF7ED" stroke="#d1d5db" stroke-width="1.5"/><g transform="translate(762 80)"><svg xmlns="http://www.w3.org/2000/svg" width="14" height="14" viewBox="0 0 24 24" fill="none" stroke="#374151" stroke-width="1.5" stroke-linecap="round" stroke-linejoin="round" class="lucide lucide-file-code"><path d="M10 12.5 8 15l2 2.5"/><path d="m14 12.5 2 2.5-2 2.5"/><path d="M14 2v4a2 2 0 0 0 2 2h4"/><path d="M15 2H6a2 2 0 0 0-2 2v16a2 2 0 0 0 2 2h12a2 2 0 0 0 2-2V7z"/></svg></g><text x="784" y="90" font-size="11" font-weight="600" fill="#111827">Scenario DSL</text><text x="784" y="102" font-size="10" fill="#6B7280" font-family="monospace">Scala DSL Specification</text><text x="762" y="121" font-size="10" font-weight="400" fill="#4B5563" font-family="monospace">• Traffic patterns</text><text x="762" y="132" font-size="10" font-weight="400" fill="#4B5563" font-family="monospace">• Event triggers</text><text x="762" y="143" font-size="10" font-weight="400" fill="#4B5563" font-family="monospace">• Constraints</text></g><g opacity="1" style="transform: none; transform-origin: 50% 50%; transform-box: fill-box;"><rect x="750" y="175" width="180" height="85" rx="6" fill="#FFF7ED" stroke="#d1d5db" stroke-width="1.5"/><g transform="translate(762 185)"><svg xmlns="http://www.w3.org/2000/svg" width="14" height="14" viewBox="0 0 24 24" fill="none" stroke="#374151" stroke-width="1.5" stroke-linecap="round" stroke-linejoin="round" class="lucide lucide-shield-check"><path d="M20 13c0 5-3.5 7.5-7.66 8.95a1 1 0 0 1-.67-.01C7.5 20.5 4 18 4 13V6a1 1 0 0 1 1-1c2 0 4.5-1.2 6.24-2.72a1.17 1.17 0 0 1 1.52 0C14.51 3.81 17 5 19 5a1 1 0 0 1 1 1z"/><path d="m9 12 2 2 4-4"/></svg></g><text x="784" y="195" font-size="11" font-weight="600" fill="#111827">Formal Validator</text><text x="784" y="207" font-size="10" fill="#6B7280" font-family="monospace">Pre-sim Verification</text><text x="762" y="226" font-size="10" font-weight="400" fill="#4B5563" font-family="monospace">• Schema check</text><text x="762" y="237" font-size="10" font-weight="400" fill="#4B5563" font-family="monospace">• Physical bounds</text><text x="762" y="248" font-size="10" font-weight="400" fill="#4B5563" font-family="monospace">• Safety props</text></g><g opacity="1" style="transform: none; transform-origin: 50% 50%; transform-box: fill-box;"><rect x="750" y="280" width="180" height="100" rx="6" fill="#FFF7ED" stroke="#d1d5db" stroke-width="1.5"/><g transform="translate(762 290)"><svg xmlns="http://www.w3.org/2000/svg" width="14" height="14" viewBox="0 0 24 24" fill="none" stroke="#374151" stroke-width="1.5" stroke-linecap="round" stroke-linejoin="round" class="lucide lucide-settings"><path d="M12.22 2h-.44a2 2 0 0 0-2 2v.18a2 2 0 0 1-1 1.73l-.43.25a2 2 0 0 1-2 0l-.15-.08a2 2 0 0 0-2.73.73l-.22.38a2 2 0 0 0 .73 2.73l.15.1a2 2 0 0 1 1 1.72v.51a2 2 0 0 1-1 1.74l-.15.09a2 2 0 0 0-.73 2.73l.22.38a2 2 0 0 0 2.73.73l.15-.08a2 2 0 0 1 2 0l.43.25a2 2 0 0 1 1 1.73V20a2 2 0 0 0 2 2h.44a2 2 0 0 0 2-2v-.18a2 2 0 0 1 1-1.73l.43-.25a2 2 0 0 1 2 0l.15.08a2 2 0 0 0 2.73-.73l.22-.39a2 2 0 0 0-.73-2.73l-.15-.08a2 2 0 0 1-1-1.74v-.5a2 2 0 0 1 1-1.74l.15-.09a2 2 0 0 0 .73-2.73l-.22-.38a2 2 0 0 0-2.73-.73l-.15.08a2 2 0 0 1-2 0l-.43-.25a2 2 0 0 1-1-1.73V4a2 2 0 0 0-2-2z"/><circle cx="12" cy="12" r="3"/></svg></g><text x="784" y="300" font-size="11" font-weight="600" fill="#111827">ScalaTion Engine</text><text x="784" y="312" font-size="10" fill="#6B7280" font-family="monospace">Microscopic Simulator</text><text x="762" y="335" font-size="10" font-weight="600" fill="#111827" font-family="monospace">Car-Following</text><text x="762" y="346" font-size="10" font-weight="400" fill="#4B5563" font-family="monospace">• Discrete &amp; Continuous</text><text x="762" y="357" font-size="10" font-weight="400" fill="#4B5563" font-family="monospace">• IDM · Gipps · Krauss</text><text x="762" y="368" font-size="10" font-weight="400" fill="#4B5563" font-family="monospace">• Lane-Change Logic</text></g><g opacity="1" style="transform: none; transform-origin: 50% 50%; transform-box: fill-box;"><rect x="970" y="120" width="200" height="95" rx="6" fill="#F0FDF4" stroke="#d1d5db" stroke-width="1.5"/><g transform="translate(982 130)"><svg xmlns="http://www.w3.org/2000/svg" width="14" height="14" viewBox="0 0 24 24" fill="none" stroke="#374151" stroke-width="1.5" stroke-linecap="round" stroke-linejoin="round" class="lucide lucide-circle-check"><circle cx="12" cy="12" r="10"/><path d="m9 12 2 2 4-4"/></svg></g><text x="1004" y="140" font-size="11" font-weight="600" fill="#111827">Runtime Invariant Monitor</text><text x="1004" y="152" font-size="10" fill="#6B7280" font-family="monospace">Safety &amp; Liveness</text><text x="982" y="170" font-size="10" font-weight="400" fill="#4B5563" font-family="monospace">• Collision &amp; spacing checks</text><text x="982" y="181" font-size="10" font-weight="400" fill="#4B5563" font-family="monospace">• Speed validity</text><text x="982" y="192" font-size="10" font-weight="400" fill="#4B5563" font-family="monospace">• Flow conservation</text><text x="982" y="203" font-size="10" font-weight="400" fill="#4B5563" font-family="monospace">• Merge order</text></g><g opacity="1" style="transform: none; transform-origin: 50% 50%; transform-box: fill-box;"><rect x="970" y="235" width="200" height="95" rx="6" fill="#F0FDF4" stroke="#d1d5db" stroke-width="1.5"/><g transform="translate(982 245)"><svg xmlns="http://www.w3.org/2000/svg" width="14" height="14" viewBox="0 0 24 24" fill="none" stroke="#374151" stroke-width="1.5" stroke-linecap="round" stroke-linejoin="round" class="lucide lucide-chart-column"><path d="M3 3v16a2 2 0 0 0 2 2h16"/><path d="M18 17V9"/><path d="M13 17V5"/><path d="M8 17v-3"/></svg></g><text x="1004" y="255" font-size="11" font-weight="600" fill="#111827">Metrics Computation</text><text x="1004" y="267" font-size="10" fill="#6B7280" font-family="monospace">Calibration &amp; Policy Eval</text><text x="982" y="285" font-size="10" font-weight="400" fill="#4B5563" font-family="monospace">• Flow: RMSE, NRMSE</text><text x="982" y="296" font-size="10" font-weight="400" fill="#4B5563" font-family="monospace">• Speed: NRMSE, sMAPE</text><text x="982" y="307" font-size="10" font-weight="400" fill="#4B5563" font-family="monospace">• Density: per-segment (derived)</text><text x="982" y="318" font-size="10" font-weight="400" fill="#4B5563" font-family="monospace">• R², Throughput, Resilience R</text></g><g><rect x="28" y="30" width="126" height="24" rx="12" fill="#DBEAFE"/><text x="40" y="46" font-size="11" font-weight="600" fill="#1E3A8A">Knowledge Layer</text><rect x="248" y="74" width="95" height="24" rx="12" fill="#EDE9FE"/><text x="260" y="90" font-size="11" font-weight="600" fill="#5B21B6">Agent Layer</text><rect x="748" y="30" width="121" height="24" rx="12" fill="#FFEDD5"/><text x="760" y="46" font-size="11" font-weight="600" fill="#9A3412">Simulation Layer</text><rect x="968" y="74" width="114" height="24" rx="12" fill="#DCFCE7"/><text x="980" y="90" font-size="11" font-weight="600" fill="#166534">Evaluation Layer</text></g><g><rect x="480" y="440" width="240" height="70" rx="35" fill="#FEF2F2" stroke="#DC2626" stroke-width="2" stroke-dasharray="5,5" opacity="1"/><g transform="translate(506 462)" style="transform-origin: 50% 50%; transform: rotate(110.88deg); transform-box: fill-box;"><svg xmlns="http://www.w3.org/2000/svg" width="16" height="16" viewBox="0 0 24 24" fill="none" stroke="#DC2626" stroke-width="1.8" stroke-linecap="round" stroke-linejoin="round" class="lucide lucide-refresh-cw"><path d="M3 12a9 9 0 0 1 9-9 9.75 9.75 0 0 1 6.74 2.74L21 8"/><path d="M21 3v5h-5"/><path d="M21 12a9 9 0 0 1-9 9 9.75 9.75 0 0 1-6.74-2.74L3 16"/><path d="M8 16H3v5"/></svg></g><text x="620" y="471" text-anchor="middle" font-size="14" font-weight="600" fill="#B91C1C">Adaptive Feedback Loop</text><text x="620" y="486" text-anchor="middle" font-size="10" fill="#DC2626" font-family="monospace">Continuous Refinement</text></g></svg>